<svg width="26" height="25" viewBox="0 0 26 25" fill="none" xmlns="http://www.w3.org/2000/svg">
<g clip-path="url(#clip0_26_155)">
<path d="M12.9998 4.29383L11.8795 3.14226C9.24984 0.439138 4.42796 1.37195 2.68734 4.77039C1.87015 6.36883 1.68577 8.67664 3.17796 11.622C4.61546 14.4579 7.60609 17.8548 12.9998 21.5548C18.3936 17.8548 21.3826 14.4579 22.8217 11.622C24.3139 8.67508 24.1311 6.36883 23.3123 4.77039C21.5717 1.37195 16.7498 0.437576 14.1201 3.1407L12.9998 4.29383ZM12.9998 23.4376C-10.958 7.60633 5.62327 -4.74992 12.7248 1.78601C12.8186 1.87195 12.9108 1.96101 12.9998 2.0532C13.088 1.9611 13.1797 1.87249 13.2748 1.78758C20.3748 -4.75305 36.9576 7.60476 12.9998 23.4376Z" fill="black"/>
</g>
<defs>
<clipPath id="clip0_26_155">
<rect width="25" height="25" fill="white" transform="translate(0.5)"/>
</clipPath>
</defs>
</svg>
