<svg width="20" height="20" viewBox="0 0 20 20" fill="none" xmlns="http://www.w3.org/2000/svg">
<path fill-rule="evenodd" clip-rule="evenodd" d="M8.32162 -1.52588e-05C6.67576 -1.52588e-05 5.06685 0.48804 3.69837 1.40243C2.32988 2.31683 1.26328 3.61649 0.633435 5.13707C0.00359031 6.65765 -0.161206 8.33085 0.159886 9.94509C0.480978 11.5593 1.27354 13.0421 2.43734 14.2059C3.60114 15.3697 5.08391 16.1623 6.69815 16.4834C8.31239 16.8044 9.98559 16.6396 11.5062 16.0098C12.281 15.6889 12.9984 15.2545 13.6368 14.7246L18.6868 19.7747C18.9872 20.0751 19.4743 20.0751 19.7747 19.7747C20.0751 19.4743 20.0751 18.9872 19.7747 18.6868L14.7246 13.6368C14.908 13.4159 15.0803 13.1851 15.2408 12.9449C16.1552 11.5764 16.6433 9.96748 16.6433 8.32162V8.32157C16.6431 6.11459 15.7663 3.99804 14.2058 2.43748C12.6452 0.876906 10.5286 0.000125229 8.32167 -1.52588e-05L8.32162 0.765463V-1.52588e-05ZM13.1179 3.52533C11.8458 2.25327 10.1206 1.53857 8.32162 1.53845L15.1048 8.32162C15.1047 6.52265 14.39 4.7974 13.1179 3.52533ZM4.55309 2.68162C5.66857 1.93628 6.98 1.53846 8.32157 1.53845L15.1048 8.32167C15.1048 9.66323 14.707 10.9747 13.9616 12.0901C13.2163 13.2056 12.1569 14.075 10.9174 14.5885C9.67797 15.1019 8.3141 15.2362 6.99829 14.9745C5.68248 14.7127 4.47384 14.0667 3.52519 13.118C2.57655 12.1694 1.93052 10.9608 1.66879 9.64495C1.40706 8.32914 1.54139 6.96527 2.05479 5.72581C2.56819 4.48635 3.43761 3.42696 4.55309 2.68162Z" fill="#9E9E9E"/>
</svg>
