<svg width="19" height="13" viewBox="0 0 19 13" fill="none" xmlns="http://www.w3.org/2000/svg">
<path d="M8.44444 13H10.5556C11.1361 13 11.6111 12.5125 11.6111 11.9167C11.6111 11.3208 11.1361 10.8333 10.5556 10.8333H8.44444C7.86389 10.8333 7.38889 11.3208 7.38889 11.9167C7.38889 12.5125 7.86389 13 8.44444 13ZM0 1.08333C0 1.67917 0.475 2.16667 1.05556 2.16667H17.9444C18.525 2.16667 19 1.67917 19 1.08333C19 0.4875 18.525 0 17.9444 0H1.05556C0.475 0 0 0.4875 0 1.08333ZM4.22222 7.58333H14.7778C15.3583 7.58333 15.8333 7.09583 15.8333 6.5C15.8333 5.90417 15.3583 5.41667 14.7778 5.41667H4.22222C3.64167 5.41667 3.16667 5.90417 3.16667 6.5C3.16667 7.09583 3.64167 7.58333 4.22222 7.58333Z" fill="black"/>
</svg>
