<svg width="20" height="21" viewBox="0 0 20 21" fill="none" xmlns="http://www.w3.org/2000/svg">
<g clip-path="url(#clip0_40_110)">
<path d="M11.25 7.375C11.25 7.20924 11.1842 7.05027 11.0669 6.93306C10.9497 6.81585 10.7908 6.75 10.625 6.75C10.4592 6.75 10.3003 6.81585 10.1831 6.93306C10.0658 7.05027 10 7.20924 10 7.375V9.25H8.125C7.95924 9.25 7.80027 9.31585 7.68306 9.43306C7.56585 9.55027 7.5 9.70924 7.5 9.875C7.5 10.0408 7.56585 10.1997 7.68306 10.3169C7.80027 10.4342 7.95924 10.5 8.125 10.5H10V12.375C10 12.5408 10.0658 12.6997 10.1831 12.8169C10.3003 12.9342 10.4592 13 10.625 13C10.7908 13 10.9497 12.9342 11.0669 12.8169C11.1842 12.6997 11.25 12.5408 11.25 12.375V10.5H13.125C13.2908 10.5 13.4497 10.4342 13.5669 10.3169C13.6842 10.1997 13.75 10.0408 13.75 9.875C13.75 9.70924 13.6842 9.55027 13.5669 9.43306C13.4497 9.31585 13.2908 9.25 13.125 9.25H11.25V7.375Z" fill="black"/>
<path d="M0.625 1.75C0.45924 1.75 0.300269 1.81585 0.183058 1.93306C0.065848 2.05027 0 2.20924 0 2.375C0 2.54076 0.065848 2.69973 0.183058 2.81694C0.300269 2.93415 0.45924 3 0.625 3H2.0125L2.51375 5.00875L4.38625 14.99C4.41306 15.1332 4.48907 15.2626 4.60114 15.3557C4.71321 15.4488 4.85429 15.4999 5 15.5H6.25C5.58696 15.5 4.95107 15.7634 4.48223 16.2322C4.01339 16.7011 3.75 17.337 3.75 18C3.75 18.663 4.01339 19.2989 4.48223 19.7678C4.95107 20.2366 5.58696 20.5 6.25 20.5C6.91304 20.5 7.54893 20.2366 8.01777 19.7678C8.48661 19.2989 8.75 18.663 8.75 18C8.75 17.337 8.48661 16.7011 8.01777 16.2322C7.54893 15.7634 6.91304 15.5 6.25 15.5H15C14.337 15.5 13.7011 15.7634 13.2322 16.2322C12.7634 16.7011 12.5 17.337 12.5 18C12.5 18.663 12.7634 19.2989 13.2322 19.7678C13.7011 20.2366 14.337 20.5 15 20.5C15.663 20.5 16.2989 20.2366 16.7678 19.7678C17.2366 19.2989 17.5 18.663 17.5 18C17.5 17.337 17.2366 16.7011 16.7678 16.2322C16.2989 15.7634 15.663 15.5 15 15.5H16.25C16.3957 15.4999 16.5368 15.4488 16.6489 15.3557C16.7609 15.2626 16.8369 15.1332 16.8638 14.99L18.7388 4.99C18.7556 4.8998 18.7524 4.80698 18.7294 4.71815C18.7064 4.62931 18.6641 4.54664 18.6055 4.476C18.5469 4.40537 18.4735 4.3485 18.3904 4.30944C18.3074 4.27038 18.2168 4.25008 18.125 4.25H3.6125L3.10625 2.22375C3.07251 2.08848 2.99452 1.96837 2.88466 1.88253C2.77481 1.79669 2.63941 1.75004 2.5 1.75H0.625ZM5.51875 14.25L3.8775 5.5H17.3725L15.7312 14.25H5.51875ZM7.5 18C7.5 18.3315 7.3683 18.6495 7.13388 18.8839C6.89946 19.1183 6.58152 19.25 6.25 19.25C5.91848 19.25 5.60054 19.1183 5.36612 18.8839C5.1317 18.6495 5 18.3315 5 18C5 17.6685 5.1317 17.3505 5.36612 17.1161C5.60054 16.8817 5.91848 16.75 6.25 16.75C6.58152 16.75 6.89946 16.8817 7.13388 17.1161C7.3683 17.3505 7.5 17.6685 7.5 18ZM16.25 18C16.25 18.3315 16.1183 18.6495 15.8839 18.8839C15.6495 19.1183 15.3315 19.25 15 19.25C14.6685 19.25 14.3505 19.1183 14.1161 18.8839C13.8817 18.6495 13.75 18.3315 13.75 18C13.75 17.6685 13.8817 17.3505 14.1161 17.1161C14.3505 16.8817 14.6685 16.75 15 16.75C15.3315 16.75 15.6495 16.8817 15.8839 17.1161C16.1183 17.3505 16.25 17.6685 16.25 18Z" fill="black"/>
</g>
<defs>
<clipPath id="clip0_40_110">
<rect width="20" height="20" fill="white" transform="translate(0 0.5)"/>
</clipPath>
</defs>
</svg>
