<svg width="26" height="25" viewBox="0 0 26 25" fill="none" xmlns="http://www.w3.org/2000/svg">
<g clip-path="url(#clip0_1_7)">
<path d="M13 25C13.8288 25 14.6237 24.6708 15.2097 24.0847C15.7958 23.4986 16.125 22.7038 16.125 21.875H9.875C9.875 22.7038 10.2042 23.4986 10.7903 24.0847C11.3763 24.6708 12.1712 25 13 25ZM13 2.99687L11.7547 3.24843C10.3421 3.53624 9.07239 4.30328 8.16039 5.41972C7.2484 6.53615 6.75015 7.93341 6.75 9.37499C6.75 10.3562 6.54062 12.8078 6.03281 15.2219C5.78281 16.4203 5.44531 17.6687 4.99688 18.75H21.0031C20.5547 17.6687 20.2188 16.4219 19.9672 15.2219C19.4594 12.8078 19.25 10.3562 19.25 9.37499C19.2495 7.93368 18.7511 6.53679 17.8391 5.42067C16.9271 4.30456 15.6576 3.53775 14.2453 3.24999L13 2.99531V2.99687ZM22.7188 18.75C23.0672 19.4484 23.4703 20.0016 23.9375 20.3125H2.0625C2.52969 20.0016 2.93281 19.4484 3.28125 18.75C4.6875 15.9375 5.1875 10.75 5.1875 9.37499C5.1875 5.59374 7.875 2.43749 11.4453 1.71718C11.4235 1.49992 11.4475 1.2805 11.5157 1.07308C11.5839 0.86565 11.6948 0.674821 11.8413 0.512897C11.9878 0.350973 12.1666 0.221548 12.3661 0.13297C12.5657 0.0443915 12.7816 -0.00137329 13 -0.00137329C13.2184 -0.00137329 13.4343 0.0443915 13.6339 0.13297C13.8334 0.221548 14.0122 0.350973 14.1587 0.512897C14.3052 0.674821 14.4161 0.86565 14.4843 1.07308C14.5525 1.2805 14.5765 1.49992 14.5547 1.71718C16.3208 2.0764 17.9084 3.03493 19.0488 4.43046C20.1892 5.826 20.8123 7.57277 20.8125 9.37499C20.8125 10.75 21.3125 15.9375 22.7188 18.75Z" fill="black"/>
</g>
<defs>
<clipPath id="clip0_1_7">
<rect width="25" height="25" fill="white" transform="translate(0.5)"/>
</clipPath>
</defs>
</svg>
