<svg width="26" height="25" viewBox="0 0 26 25" fill="none" xmlns="http://www.w3.org/2000/svg">
<g clip-path="url(#clip0_1_91)">
<path d="M0.5 2.34375C0.5 2.13655 0.58231 1.93784 0.728823 1.79132C0.875336 1.64481 1.07405 1.5625 1.28125 1.5625H3.625C3.79927 1.56255 3.96852 1.62086 4.10583 1.72816C4.24314 1.83547 4.34064 1.9856 4.38281 2.15469L5.01562 4.6875H23.1562C23.2718 4.68757 23.3859 4.71327 23.4903 4.76274C23.5947 4.81221 23.6868 4.88422 23.7601 4.97359C23.8333 5.06296 23.8858 5.16746 23.9138 5.27956C23.9418 5.39166 23.9445 5.50858 23.9219 5.62188L22.3594 13.4344C22.3252 13.6047 22.2352 13.7588 22.1036 13.8723C21.972 13.9858 21.8064 14.0522 21.6328 14.0609L6.95 14.7984L7.39844 17.1875H20.8125C21.0197 17.1875 21.2184 17.2698 21.3649 17.4163C21.5114 17.5628 21.5938 17.7615 21.5938 17.9688C21.5938 18.176 21.5114 18.3747 21.3649 18.5212C21.2184 18.6677 21.0197 18.75 20.8125 18.75H6.75C6.56786 18.7498 6.39151 18.686 6.25142 18.5696C6.11134 18.4532 6.01633 18.2915 5.98281 18.1125L3.64062 5.63594L3.01562 3.125H1.28125C1.07405 3.125 0.875336 3.04269 0.728823 2.89618C0.58231 2.74966 0.5 2.55095 0.5 2.34375ZM5.34688 6.25L6.65937 13.2484L20.9469 12.5313L22.2031 6.25H5.34688ZM8.3125 18.75C7.4837 18.75 6.68884 19.0792 6.10279 19.6653C5.51674 20.2513 5.1875 21.0462 5.1875 21.875C5.1875 22.7038 5.51674 23.4987 6.10279 24.0847C6.68884 24.6708 7.4837 25 8.3125 25C9.1413 25 9.93616 24.6708 10.5222 24.0847C11.1083 23.4987 11.4375 22.7038 11.4375 21.875C11.4375 21.0462 11.1083 20.2513 10.5222 19.6653C9.93616 19.0792 9.1413 18.75 8.3125 18.75ZM19.25 18.75C18.4212 18.75 17.6263 19.0792 17.0403 19.6653C16.4542 20.2513 16.125 21.0462 16.125 21.875C16.125 22.7038 16.4542 23.4987 17.0403 24.0847C17.6263 24.6708 18.4212 25 19.25 25C20.0788 25 20.8737 24.6708 21.4597 24.0847C22.0458 23.4987 22.375 22.7038 22.375 21.875C22.375 21.0462 22.0458 20.2513 21.4597 19.6653C20.8737 19.0792 20.0788 18.75 19.25 18.75ZM8.3125 20.3125C8.7269 20.3125 9.12433 20.4771 9.41735 20.7701C9.71038 21.0632 9.875 21.4606 9.875 21.875C9.875 22.2894 9.71038 22.6868 9.41735 22.9799C9.12433 23.2729 8.7269 23.4375 8.3125 23.4375C7.8981 23.4375 7.50067 23.2729 7.20765 22.9799C6.91462 22.6868 6.75 22.2894 6.75 21.875C6.75 21.4606 6.91462 21.0632 7.20765 20.7701C7.50067 20.4771 7.8981 20.3125 8.3125 20.3125ZM19.25 20.3125C19.6644 20.3125 20.0618 20.4771 20.3549 20.7701C20.6479 21.0632 20.8125 21.4606 20.8125 21.875C20.8125 22.2894 20.6479 22.6868 20.3549 22.9799C20.0618 23.2729 19.6644 23.4375 19.25 23.4375C18.8356 23.4375 18.4382 23.2729 18.1451 22.9799C17.8521 22.6868 17.6875 22.2894 17.6875 21.875C17.6875 21.4606 17.8521 21.0632 18.1451 20.7701C18.4382 20.4771 18.8356 20.3125 19.25 20.3125Z" fill="black"/>
</g>
<defs>
<clipPath id="clip0_1_91">
<rect width="25" height="25" fill="white" transform="translate(0.5)"/>
</clipPath>
</defs>
</svg>
