<svg width="26" height="25" viewBox="0 0 26 25" fill="none" xmlns="http://www.w3.org/2000/svg">
<path d="M10.6563 22.6562V17.1797C10.6563 16.7969 11.0469 16.4062 11.4375 16.4062H14.5625C14.9531 16.4062 15.3438 16.7969 15.3438 17.1875V22.6562C15.3438 22.8634 15.4261 23.0622 15.5726 23.2087C15.7191 23.3552 15.9178 23.4375 16.125 23.4375H22.375C22.5822 23.4375 22.7809 23.3552 22.9274 23.2087C23.0739 23.0622 23.1563 22.8634 23.1563 22.6562V11.7187C23.1564 11.6161 23.1364 11.5144 23.0972 11.4195C23.0581 11.3246 23.0006 11.2383 22.9281 11.1656L20.8125 9.05155V3.90624C20.8125 3.69904 20.7302 3.50033 20.5837 3.35382C20.4372 3.2073 20.2385 3.12499 20.0313 3.12499H18.4688C18.2616 3.12499 18.0628 3.2073 17.9163 3.35382C17.7698 3.50033 17.6875 3.69904 17.6875 3.90624V5.92655L13.5531 1.79062C13.4806 1.71786 13.3943 1.66014 13.2994 1.62075C13.2045 1.58137 13.1028 1.5611 13 1.5611C12.8972 1.5611 12.7955 1.58137 12.7006 1.62075C12.6057 1.66014 12.5194 1.71786 12.4469 1.79062L3.07187 11.1656C2.99937 11.2383 2.9419 11.3246 2.90276 11.4195C2.86362 11.5144 2.84356 11.6161 2.84375 11.7187V22.6562C2.84375 22.8634 2.92606 23.0622 3.07257 23.2087C3.21908 23.3552 3.4178 23.4375 3.625 23.4375H9.875C10.0822 23.4375 10.2809 23.3552 10.4274 23.2087C10.5739 23.0622 10.6563 22.8634 10.6563 22.6562Z" fill="black"/>
</svg>
