<svg width="16" height="7" viewBox="0 0 16 7" fill="none" xmlns="http://www.w3.org/2000/svg">
<g clip-path="url(#clip0_85_18)">
<path d="M6.354 0.947906H4C3.20435 0.947907 2.44129 1.27056 1.87868 1.84489C1.31607 2.41922 1 3.19818 1 4.01041C1 4.82263 1.31607 5.60159 1.87868 6.17592C2.44129 6.75025 3.20435 7.07291 4 7.07291H7C7.48008 7.07316 7.9532 6.9558 8.37963 6.73069C8.80606 6.50557 9.17334 6.17927 9.45061 5.7792C9.72788 5.37913 9.90706 4.91697 9.97307 4.43155C10.0391 3.94613 9.99003 3.45162 9.83 2.98957H9C8.914 2.98957 8.83 2.99978 8.75 3.02122C8.91865 3.33207 9.00491 3.68247 9.00024 4.03778C8.99557 4.39309 8.90015 4.741 8.72339 5.04713C8.54664 5.35325 8.29468 5.60698 7.99243 5.78323C7.69017 5.95948 7.34809 6.05215 7 6.05207H4C3.46957 6.05207 2.96086 5.83697 2.58579 5.45408C2.21071 5.0712 2 4.55189 2 4.01041C2 3.46892 2.21071 2.94962 2.58579 2.56673C2.96086 2.18384 3.46957 1.96874 4 1.96874H5.535C5.753 1.58491 6.03 1.23986 6.355 0.947906H6.354Z" fill="#FF6633"/>
<path d="M9 0.947907C8.51993 0.94765 8.0468 1.06501 7.62038 1.29013C7.19395 1.51524 6.82667 1.84154 6.5494 2.24162C6.27212 2.64169 6.09295 3.10385 6.02693 3.58927C5.96091 4.07469 6.00998 4.56919 6.17 5.03124H7.268C7.09247 4.72087 7.00006 4.3688 7.00005 4.01042C7.00005 3.65204 7.09246 3.29997 7.26799 2.9896C7.44352 2.67923 7.69599 2.42149 8.00002 2.24229C8.30405 2.06309 8.64894 1.96875 9 1.96874H12C12.5304 1.96874 13.0391 2.18384 13.4142 2.56673C13.7893 2.94962 14 3.46892 14 4.01041C14 4.55189 13.7893 5.0712 13.4142 5.45408C13.0391 5.83697 12.5304 6.05207 12 6.05207H10.465C10.2474 6.4353 9.97051 6.78003 9.645 7.07291H12C12.394 7.07291 12.7841 6.99369 13.1481 6.83979C13.512 6.68588 13.8427 6.4603 14.1213 6.17592C14.3999 5.89154 14.6209 5.55393 14.7716 5.18237C14.9224 4.81082 15 4.41258 15 4.01041C15 3.60823 14.9224 3.21 14.7716 2.83844C14.6209 2.46688 14.3999 2.12927 14.1213 1.84489C13.8427 1.56051 13.512 1.33493 13.1481 1.18103C12.7841 1.02712 12.394 0.947907 12 0.947907H9Z" fill="#FFCC33"/>
</g>
<defs>
<clipPath id="clip0_85_18">
<rect width="16" height="7" rx="3.5" fill="white"/>
</clipPath>
</defs>
</svg>
